<svg xmlns="http://www.w3.org/2000/svg" viewBox="0 0 866.53 169.62"><defs><style>.cls-1{fill:#004b98;}</style></defs><g id="Capa_2" data-name="Capa 2"><g id="Capa_1-2" data-name="Capa 1"><path class="cls-1" d="M16,133.93a1.91,1.91,0,0,1,.34-.24c6.6-2.34,13.1-5,20-6.45a89.7,89.7,0,0,1,12.42-1.76,43,43,0,0,1,10.37.93c10.24,1.75,20.29,4.39,30.41,6.74A73.11,73.11,0,0,0,103.37,135c3.75.15,7.53.27,11.27.05a57.8,57.8,0,0,0,8.75-1.42c3.63-.79,7.2-1.81,10.8-2.7a5.47,5.47,0,0,0,3.63-2.89,14.09,14.09,0,0,0,1-2.32q2.55-7.76,5-15.54a8.35,8.35,0,0,0,.38-1.36c.21-1.38-.5-2-1.89-1.78a6.37,6.37,0,0,0-1.34.44,60.41,60.41,0,0,1-16.6,4.28,108.5,108.5,0,0,1-10.94,1,71.48,71.48,0,0,1-16-1.49c-7.15-1.38-14.25-3-21.39-4.45-3.91-.81-7.82-1.65-11.76-2.25a68.87,68.87,0,0,0-14.21-.6c-12,.64-23.3,4-34.34,8.44-2.75,1.11-5.45,2.31-8.18,3.46l-1.28.51C-8,83.77.88,34.41,44.37,10.51,85.17-11.9,131.9,4,153.25,34.78c-.51.17-1,.35-1.46.48q-5.64,1.56-11.29,3.1A53.06,53.06,0,0,1,131,39.77a75.39,75.39,0,0,1-14.64-.27,79.13,79.13,0,0,1-10.22-2.09c-8.16-2-16.33-4-24.52-5.9A66.5,66.5,0,0,0,65.14,29.7a90.32,90.32,0,0,0-9.12.82A103.92,103.92,0,0,0,40,33.6c-1.85.54-3.67,1.2-5.46,1.9a8.6,8.6,0,0,0-2.41,1.42,4.58,4.58,0,0,0-1.35,1.91C28.87,44.39,27.05,50,25.24,55.56A9.5,9.5,0,0,0,24.75,58c-.05,1.08.62,1.53,1.66,1.23a8.45,8.45,0,0,0,1-.43,115.72,115.72,0,0,1,14.94-5.07,73,73,0,0,1,20.56-2,96,96,0,0,1,21.44,3.06c7.32,1.89,14.73,3.46,22.11,5.14,2.51.57,5,1.17,7.58,1.55a52.49,52.49,0,0,0,10.56.33c12-.66,23.38-4,34.57-8.19l3.95-1.45C177.39,82.89,171,132.56,127.59,158,86.51,182,38,166.33,16,133.93ZM60.36,66.76c-.76,0-1.51,0-2.26,0a95.31,95.31,0,0,0-15.25,1.8A86.76,86.76,0,0,0,20.7,75.88,8.87,8.87,0,0,0,16,81.52c-.25.81-.5,1.62-.76,2.42-1.46,4.36-2.93,8.73-4.37,13.1a5.87,5.87,0,0,0-.31,1.65,1.39,1.39,0,0,0,1.84,1.52,10.82,10.82,0,0,0,2.1-.77c12-5.26,24.35-9.2,37.44-10.51a53.2,53.2,0,0,1,17,.81q13.14,3,26.2,6.2c9.81,2.47,19.69,3.53,29.76,2.09a95.46,95.46,0,0,0,18.64-4.37,67.71,67.71,0,0,0,6.3-2.78,4.07,4.07,0,0,0,2.08-2.55c1.85-5.48,3.73-10.94,5.59-16.41a6,6,0,0,0,.35-1.5c.09-1-.43-1.65-1.47-1.61a8.78,8.78,0,0,0-2.19.44c-3.94,1.24-7.86,2.57-11.82,3.75a76.22,76.22,0,0,1-19.53,3.41A93.53,93.53,0,0,1,97.64,73.8c-6.8-1.67-13.49-3.78-20.37-5.11A79.57,79.57,0,0,0,60.36,66.76Z"/><path class="cls-1" d="M519.26,129.14c-5.12-.16-10.25-.21-15.37-.52-8-.49-16-1.45-23.73-3.91a34.7,34.7,0,0,1-8.33-3.75,25.13,25.13,0,0,1-3.58-2.74c-3.49-3.29-4.63-7.41-4-12.08a71.18,71.18,0,0,1,4.46-15.54q10.31-27,20.69-54A37.57,37.57,0,0,1,492,31.46a8.32,8.32,0,0,1,6-4.26,43.93,43.93,0,0,1,6.85-.77c9.27-.08,18.53-.06,27.8,0,2.16,0,4.31.3,6.46.51a7.94,7.94,0,0,1,1.78.42A2.73,2.73,0,0,1,543,30.68a17.16,17.16,0,0,1-.93,3.53c-3.16,8.35-6.37,16.68-9.56,25q-6.9,18-13.79,36.07a13.48,13.48,0,0,0-.79,3.12,4.66,4.66,0,0,0,2.88,5.15,16.22,16.22,0,0,0,4.55,1.4,47.27,47.27,0,0,0,17.93-.78,20.54,20.54,0,0,0,4.18-1.65,9.51,9.51,0,0,0,4.72-5.37q9.32-24.44,18.68-48.84c1.68-4.39,3.48-8.73,5-13.17A11.44,11.44,0,0,1,586.14,27a71.54,71.54,0,0,1,7.59-.55c8.61-.07,17.22-.05,25.83,0a45.66,45.66,0,0,1,5.18.52,5.05,5.05,0,0,1,1.34.41,3.49,3.49,0,0,1,2.35,4.38,16.35,16.35,0,0,1-.76,2.56q-11.5,30.09-23,60.16c-4,10.53-11.27,18-21.09,23.3a78,78,0,0,1-19.17,6.92,153,153,0,0,1-20.18,3.21C535.91,128.69,527.6,129,519.26,129.14Z"/><path class="cls-1" d="M296.85,62.77c4.94,0,9.88-.08,14.82,0a55.65,55.65,0,0,1,7.13.84,10.3,10.3,0,0,1,2.79.93,4.34,4.34,0,0,1,2.59,4.85,15.82,15.82,0,0,1-.86,3.26q-8.43,22.13-16.92,44.23c-.29.75-.64,1.46-1,2.2a8.88,8.88,0,0,1-6.19,5.32c-3.27.84-6.56,1.65-9.89,2.24a137,137,0,0,1-20.61,2c-7.15.17-14.31.36-21.45.15a123.92,123.92,0,0,1-30.91-4.43,59.91,59.91,0,0,1-17.53-7.92,33,33,0,0,1-9.18-9.05,24.9,24.9,0,0,1-4-16.25c.66-7.77,3.6-14.74,7.59-21.32a67.76,67.76,0,0,1,18.62-19.62,114.36,114.36,0,0,1,30.94-15.4,155.62,155.62,0,0,1,26.87-6.3,217.78,217.78,0,0,1,39.53-2c4.09.15,8.18.32,12.25.71a59.6,59.6,0,0,1,8,1.41,10.48,10.48,0,0,1,3.42,1.6,4.3,4.3,0,0,1,1.87,5.17,37.57,37.57,0,0,1-5.62,11.47c-1.86,2.46-4.53,3.39-7.43,3.88a32.46,32.46,0,0,1-9.84-.13,117.12,117.12,0,0,0-22.38-.94,79.39,79.39,0,0,0-21.86,3.93A41.34,41.34,0,0,0,253.13,62a34.47,34.47,0,0,0-8.47,11.84,56.91,56.91,0,0,0-4.07,13.31,20.17,20.17,0,0,0,.06,8.26,10.07,10.07,0,0,0,5.19,6.7,18.11,18.11,0,0,0,6.29,2,30.66,30.66,0,0,0,10.38-.1,9.25,9.25,0,0,0,6.83-5.16c.79-1.6,1.4-3.28,2.07-4.93q.88-2.23,1.71-4.48c.49-1.31.34-2-.89-2.56a23.6,23.6,0,0,0-3.83-1.37c-1.49-.44-3-.65-4.51-1.14-3.67-1.22-4.6-3.21-3.26-6.85a45.79,45.79,0,0,1,3.7-7.74,12.48,12.48,0,0,1,9.42-6.2,86.89,86.89,0,0,1,12.37-.87h10.73Z"/><path class="cls-1" d="M418.12,26.4c6,0,12,0,18.06,0,2.63,0,5.26.21,7.88.45a3,3,0,0,1,1.82.93,12.47,12.47,0,0,1,3.5,7.65c.38,5.9.85,11.81,1.28,17.71.32,4.36.62,8.72.93,13.08q.53,7.32,1.06,14.63c.32,4.5.62,9,.94,13.5s.7,9.28,1,13.92c.26,3.89.52,7.78.67,11.68a7.17,7.17,0,0,1-2,5.39,9.2,9.2,0,0,1-4,2.49,31,31,0,0,1-8.75,1.33c-10.21.07-20.42.06-30.63,0a13,13,0,0,1-5.85-1.36,2.94,2.94,0,0,1-1.92-3.13c.22-2.14.45-4.29.68-6.43.1-.84.27-1.67.32-2.52a4.71,4.71,0,0,0-3.38-5.09,18.51,18.51,0,0,0-4.41-.86,70.62,70.62,0,0,0-16.87.81c-1.33.24-2.65.61-4,1a4.47,4.47,0,0,0-2.22,1.82c-1.63,2.16-2.37,4.68-3.3,7.12a21,21,0,0,1-.86,1.93,9.86,9.86,0,0,1-7.21,5.58,43.06,43.06,0,0,1-7.4.87c-11.48.09-22.95.06-34.43,0a45.31,45.31,0,0,1-5-.52,4,4,0,0,1-.82-.21c-2.26-.75-2.84-1.94-1.58-3.93a87.87,87.87,0,0,1,5.42-7.73c11.64-14.65,23.4-29.2,35-43.89,9.09-11.51,18-23.16,27-34.77A34.86,34.86,0,0,1,387.12,30a20.33,20.33,0,0,1,11.81-3.59C405.32,26.45,411.72,26.4,418.12,26.4Zm-6.36,39.69h0L412,59c.08-2.35.17-4.69.26-7,0-.6,0-1.17-.68-1.41a1.56,1.56,0,0,0-1.71.29,11.14,11.14,0,0,0-1,1.17c-2.6,3.35-5.22,6.67-7.77,10.05Q394.82,70.49,388.59,79a25,25,0,0,0-2.43,4.12,2.13,2.13,0,0,0,1.19,3.13,10.26,10.26,0,0,0,2.53.82,50.45,50.45,0,0,0,14.62.19,14.65,14.65,0,0,0,3.64-1A4.12,4.12,0,0,0,410.81,83a39.61,39.61,0,0,0,.5-4.61C411.5,74.26,411.61,70.18,411.76,66.09Z"/><path class="cls-1" d="M648,129.2c-7.19-.29-14.38-.47-21.56-.88a108.74,108.74,0,0,1-16.38-1.91,22.58,22.58,0,0,1-3.73-1.22A2.08,2.08,0,0,1,605,122.8a12.37,12.37,0,0,1,.47-2.19c1.32-3.77,2.79-7.49,4-11.3,1.41-4.46,4.49-6.75,8.91-7.61a34.47,34.47,0,0,1,15.09.4,84.35,84.35,0,0,0,22.94,2.36,37.06,37.06,0,0,0,9.08-1.1,24.15,24.15,0,0,0,4.14-1.73,6.33,6.33,0,0,0,2.58-2.74,3.09,3.09,0,0,0-.13-3.46,15.29,15.29,0,0,0-2.37-2.58,38,38,0,0,0-8.31-5c-3.9-1.87-7.86-3.61-11.76-5.49a63.37,63.37,0,0,1-12.53-7.56A34.2,34.2,0,0,1,634,72c-4.54-4.64-5.76-10.08-3.75-16.23a29.43,29.43,0,0,1,10.52-14.33,55.92,55.92,0,0,1,16.25-8.31,111.15,111.15,0,0,1,19-4.53,250,250,0,0,1,41.64-2.49c5.4.06,10.81.29,16.21.52,1.73.07,3.46.36,5.18.58a6.52,6.52,0,0,1,1.23.31,3.72,3.72,0,0,1,2.73,4.36,15.44,15.44,0,0,1-.79,3.13c-1.25,3.39-2.68,6.72-3.84,10.14-1.54,4.51-4.64,6.56-9.32,6.75a106.21,106.21,0,0,1-15.34-.7c-4.11-.44-8.24-.81-12.37-.94a30,30,0,0,0-10.3,1.34,14.48,14.48,0,0,0-3.43,1.59,8.5,8.5,0,0,0-2,2.11,2.08,2.08,0,0,0,.06,2.63,10.47,10.47,0,0,0,2.22,2.33,67.19,67.19,0,0,0,7.23,4.64C701,68,707,70.8,712.8,73.82c3,1.58,6,3.33,8.9,5.15a25.7,25.7,0,0,1,3.81,3.12c4.24,4,5.36,8.8,3.74,14.29a34.42,34.42,0,0,1-11.51,17A54.87,54.87,0,0,1,699.2,123a115.14,115.14,0,0,1-20,4.26A261,261,0,0,1,648,129.2Z"/><path class="cls-1" d="M771.31,129.2c-7.18-.29-14.38-.47-21.56-.88a109.78,109.78,0,0,1-16.37-1.92,21.15,21.15,0,0,1-3.61-1.18,2.15,2.15,0,0,1-1.4-2.49,13.41,13.41,0,0,1,.51-2.19c1.33-3.81,2.77-7.59,4-11.43a10.18,10.18,0,0,1,8-7.19,32.3,32.3,0,0,1,14.67-.09,89.94,89.94,0,0,0,13.33,2.29,72.53,72.53,0,0,0,18.56-.42,15.58,15.58,0,0,0,5.05-1.72,7.71,7.71,0,0,0,3.07-3,3.09,3.09,0,0,0-.13-3.58,16.13,16.13,0,0,0-2.61-2.74,39.18,39.18,0,0,0-8.09-4.83c-4.24-2-8.54-3.94-12.76-6a57.39,57.39,0,0,1-11.74-7.25,32.79,32.79,0,0,1-3.47-3.3,14.6,14.6,0,0,1-3.33-14.43A28.8,28.8,0,0,1,763.93,41.7a54.84,54.84,0,0,1,16.46-8.51,116.47,116.47,0,0,1,21.27-4.87c14.43-2.06,29-2.38,43.49-2.13,4.14.07,8.27.25,12.4.49a36.61,36.61,0,0,1,5.72.79c2.6.58,3.63,2.29,3.14,4.93a15.73,15.73,0,0,1-.74,2.71c-1.28,3.44-2.61,6.85-3.92,10.27-.19.48-.41.95-.62,1.42a7.86,7.86,0,0,1-6.71,4.89,58.47,58.47,0,0,1-11.83.07c-4.91-.45-9.81-1-14.74-1.41a36.76,36.76,0,0,0-13.27,1.27A17.58,17.58,0,0,0,811.37,53a6.73,6.73,0,0,0-1.72,1.43c-1.34,1.53-1.4,2.78,0,4.24a21.07,21.07,0,0,0,3.89,3.23c2.91,1.81,5.89,3.52,8.94,5.09,5.1,2.62,10.28,5.08,15.41,7.65a47.53,47.53,0,0,1,8.4,5.15,35.9,35.9,0,0,1,3.06,2.71,12.86,12.86,0,0,1,3.54,12.83,32.59,32.59,0,0,1-8,14.53A46.19,46.19,0,0,1,828.1,121a91.36,91.36,0,0,1-19.68,5.38C796.77,128.4,785.18,129.09,771.31,129.2Z"/></g></g></svg>