<?xml version="1.0" encoding="UTF-8"?>
<svg id="Capa_1" data-name="Capa 1" xmlns="http://www.w3.org/2000/svg" xmlns:xlink="http://www.w3.org/1999/xlink" viewBox="0 0 204.01 159.01">
  <defs>
    <style>
      .cls-1 {
        fill: #6e787d;
      }

      .cls-2 {
        fill: #7eccdf;
      }

      .cls-3 {
        fill: #191f21;
      }

      .cls-4 {
        fill: #31383b;
      }

      .cls-5 {
        fill: #45bfed;
      }

      .cls-6 {
        fill: #4f9fd8;
      }

      .cls-7 {
        fill: #9a9c9c;
      }

      .cls-8 {
        fill: #c4c7c3;
      }

      .cls-9 {
        fill: #0392c6;
      }

      .cls-10 {
        fill: #65c4de;
      }

      .cls-11 {
        fill: #106f8a;
      }

      .cls-12 {
        fill: #eff1f1;
      }

      .cls-13 {
        fill: #778085;
      }

      .cls-14 {
        fill: #2b6fb5;
      }

      .cls-15 {
        fill: #8e9ca0;
      }

      .cls-16 {
        fill: #4ca7de;
      }

      .cls-17 {
        fill: #328cca;
      }

      .cls-18 {
        fill: #abafb1;
      }

      .cls-19 {
        fill: #454c50;
      }

      .cls-20 {
        fill: #a2a1a0;
      }

      .cls-21 {
        fill: #10161a;
      }

      .cls-22 {
        clip-path: url(#clippath);
      }

      .cls-23 {
        clip-rule: evenodd;
        fill: none;
      }

      .cls-24 {
        fill: #8a8b8c;
      }

      .cls-25 {
        fill: #535c61;
      }

      .cls-26 {
        fill: #161a1d;
      }

      .cls-27 {
        fill: #3f4445;
      }

      .cls-28 {
        fill: #8a9198;
      }

      .cls-29 {
        fill: #252a2c;
      }

      .cls-30 {
        fill: #2a82c4;
      }
    </style>
    <clipPath id="clippath">
      <polygon class="cls-23" points="0 0 204.01 0 204.01 159.01 0 159.01 0 0 0 0"/>
    </clipPath>
  </defs>
  <g class="cls-22">
    <g>
      <path class="cls-21" d="m25.87,105.16c-5.27,2.06-10.54,4.12-15.81,6.19-.72-.72-1.43-1.44-2.15-2.15,6.92-3.92,13.85-7.83,20.77-11.75.53-.14,1.07-.28,1.6-.42.03.23.05.46.08.69-.02-.24-.03-.47-.05-.71.04-.39.08-.78.13-1.17,1.5-.22,3.08-.2,4.47-.7,3.03-1.09,5.97-2.44,8.95-3.69.64-.65,1.29-1.31,1.93-1.96,3.64-1.36,7.28-2.71,10.92-4.07,7.29-3.5,14.58-7,21.43-10.29-2.23-2.63-3.83-4.55-5.53-6.36-.03-.04-1.29,1.07-1.97,1.64-2.31.46-4.63.91-6.94,1.37-2.99,1.31-5.98,2.63-8.97,3.94-1.99,1.56-3.97,3.11-5.96,4.67-2.62.73-5.24,1.47-7.86,2.2-1.02-.03-2.04-.07-3.06-.1-.45-.16-.9-.33-1.34-.49-1.61.49-3.23.97-4.84,1.47-1.96.61-3.91,1.23-6.06,1.92-2.11-2.58-2.77-4.49,1.44-6.09,2.21-.84,3.88-3.1,5.79-4.73,0-.7,0-1.4-.01-2.1,3.98-2.26,7.96-4.53,11.93-6.79.05-.36.1-.71.15-1.07,1.96-.49,3.92-.98,5.87-1.48,1.65-.87,3.29-1.74,4.94-2.61.99-.34,1.98-.69,2.97-1.03.68-.62,1.36-1.23,2.04-1.85.3-.7.6-1.39.89-2.09-.63-.71-1.26-1.42-1.89-2.12-.35-1.28-.7-2.57-1.04-3.85,1.41-1.63,2.82-3.26,4.23-4.88.25-.35.5-.7.76-1.04.09-.32.19-.63.28-.95.24-.34.48-.68.72-1.02.31-.65.63-1.3.94-1.95,3.34.34,6.68.68,10.02,1.03.67-.27,1.34-.53,2.01-.8,1.28-.72,2.56-1.44,3.84-2.16.37-.28.74-.56,1.11-.83,2.32-1.72,4.64-3.44,6.96-5.17.33-.25.66-.5,1-.75.69-.38,1.38-.76,2.07-1.15,3.85-1.05,7.71-2.05,11.52-3.21.51-.15.76-1.14,1.13-1.74.74-.03,1.49-.07,2.23-.1,1.04-.02,2.09-.03,3.13-.05,1.43.67,2.82,1.48,4.31,1.98,6.12,2.05,12.28,4,18.42,5.98.66.36,1.32.72,1.98,1.08-1.37,1.33-2.74,2.66-4.12,3.98-2.85,1.13-7.04,3.5-8.14-.27-1.26-4.34-3.98-4.65-7.27-5.68-.66,3.62-2.99,4.58-6.34,3.7l-1.79-1.79c-1.02-.65-2.5-2.1-2.99-1.82-1.59.92-3.35,2.22-4.07,3.81-1.55,3.44-3.41,5.08-7.11,3.06-.35-.56-.7-1.12-1.05-1.68-.3.46-.61.92-.91,1.39-1.26.94-2.52,1.89-3.79,2.83,1.61,5.33,1.16,5.62-4.4,7.55-1.27.44-2.77,4.32-2.12,5.44,2.76,4.77,2.2,6.59-3.49,7.77v3.38c.43.94.74,2.6,1.32,2.7,4.48.78,3.95,4.28,4.28,7.34-2.45,2.97-1.82,5.3,1.55,5.96,1.23.24,2.41.71,3.62,1.08.35,6.12,2.78,9.41,9.46,6.95.14-.05.32.04.48.07.67.68,1.98,1.43,1.91,2.02-.55,4.46,2.37,5.09,5.81,5.6,2.57-4.07,5.32-6.04,9.57-1.51.71.76,5.76-.63,5.99-1.66,1.49-6.66,5.26-4.6,9.27-2.65,1.07-2.39,6.06-3,2.41-6.95,1.13-1.06,2.11-2.74,3.42-3.07,6.32-1.62,6.68-2.49,2.46-7.84,1.06-1.63,1.99-4.55,3.19-4.66,3.48-.33,2.84-2.27,2.65-4.34-.11-.91-.22-1.82-.33-2.74-4.1.7-4.37-2.79-5.66-5.16.09-.49.04-1.06.29-1.44.87-1.33,1.84-2.6,2.77-3.89-1.61-.87-3.29-1.62-4.8-2.63-1.16-.78-2.09-1.88-3.12-2.84,0-.42,0-.83,0-1.25,0-1.25,0-2.49,0-3.74,3.4-1.63,5.39.18,7.01,2.88,1.37,1.34,2.74,2.68,4.1,4.02.32,1.58.63,3.17.95,4.75.32,1.73.65,3.47.97,5.2.64,1.31,1.29,2.62,1.93,3.93-.69,3.4.83,5.29,4.1,5.98-1.44.98-2.88,1.96-4.32,2.94-1.62,1.14-3.23,2.28-4.85,3.42.28.41.56.82.83,1.22,1.75-.89,3.49-1.77,5.24-2.66,1.97-.67,3.94-1.33,5.92-2,.34-.25.68-.51,1.02-.76.34-.1.67-.19,1.01-.29.68.68,1.35,1.36,2.03,2.03.33,0,.65,0,.98.02,0,.28,0,.55,0,.83-6.24,4.18-14.78,5.06-18.9,13.63,2.34-.79,4.12-1.33,5.85-1.98,4.72-1.77,9.41-3.58,14.12-5.37-.67,1.29-1.34,2.57-2.01,3.86-3.5,1.25-7.11,2.27-10.47,3.83-2.04.94-3.69,2.72-5.51,4.12-.34-.01-.69-.02-1.03-.03-.28.68-.57,1.35-.85,2.03-3.53,7.42-10.76,10.55-17.1,14.7-.98.12-1.97.23-2.95.35-.34.26-.69.53-1.03.79,0,0,.03-.05.03-.05-2.3.42-4.59.84-6.89,1.25-2.32.21-4.65.41-6.97.62,0-.93,0-1.85,0-2.78.99-.33,1.99-.66,2.98-1,.57,0,1.13.01,1.7.02-.04-.16-.12-.45-.13-.45-.53.12-1.06.27-1.58.42-1,.33-1.99.66-2.99.99-.67.35-1.34.71-2.01,1.06-.29-.02-.58-.03-.87-.03-.35.26-.71.53-1.06.79-1.37-.27-2.74-.55-4.11-.82,2.44-1.63,4.89-3.26,7.33-4.9-.2-.45-.4-.9-.6-1.35-2.14.4-4.45.42-6.4,1.27-6.46,2.82-12.76,6.02-19.2,8.87-1.18.52-2.77.11-4.18.12.45-1,.9-2.01,1.35-3.01.3,0,.57-.06.83-.21,6.01-2.58,12.03-5.16,18.04-7.74.45-1.32,1.64-2.94,1.24-3.92-2.52-6.2-5.53-1.28-8.38-.16-1.88.82-3.74,1.7-5.65,2.44-4.99,1.93-10.01,3.8-15.01,5.7.32-.69.63-1.39.95-2.08,4.6-1.98,9.2-3.95,13.8-5.93,2.77-1.19,2.52-2.94.94-4.95-1.56-3.38-4.4-2.35-6.7-1.54-3.33,1.16-6.56,2.73-9.63,4.48-4.22,2.42-8.24,5.18-12.35,7.79-5.51-.5-9.62,2.85-14.12,5.14-2-.01-4-.03-6-.04.56-.59,1-1.41,1.69-1.72,10.48-4.77,21.02-9.4,31.46-14.27,1.56-.73,2.65-2.47,3.96-3.74,3.12,2.18,3.86-1.43,5.72-2.33.45.1.89.21,1.34.31l.65.18c.23-.67.46-1.33.7-2-.81-.11-1.63-.23-2.44-.34-1.33-4.58-3.77-4.97-7.17-1.93-.21.18-.61.15-.92.22-3.67,1.86-7.34,3.71-11.01,5.57-1.98,1-3.97,2-5.95,3-1.8.63-3.67,1.09-5.37,1.91-4.82,2.34-9.57,4.83-14.34,7.26-.37.26-.75.53-1.12.79-.33.07-.65.14-.98.22-1.01.58-2.02,1.16-3.03,1.73-.28.13-.58.21-.89.23-.69.59-1.39,1.18-2.08,1.77Zm106.88-10.52c-1.45-.07-2.9-.15-4.35-.22-.74-.04-1.79-.42-2.17-.07-2.01,1.85-3.85,3.87-5.72,5.81,2.01,1.45,7.71-.72,8.87-3.65,1.12-.62,2.25-1.25,3.37-1.87Zm-25.57,6.77c.79.34,1.57.69,2.36,1.03.67-.79,1.34-1.58,2.77-3.27-3.01.65-4.55.99-6.09,1.32.32.31.63.62.95.92Zm-22.47-61.89c-8.09,4.27-15.06,7.95-22.04,11.63,7.88,1.83,20.61-4.92,22.04-11.63Zm32.2,65.42c.1-.57.19-1.13.29-1.7-1.07-.12-2.14-.28-3.21-.3-.11,0-.24.84-.36,1.29l3.29.7Zm20.48-12.08c-.21-.28-.42-.56-.64-.84-.45.15-1.19.2-1.29.48-.18.49.04,1.12.08,1.7.61-.45,1.23-.9,1.84-1.34Zm-19.21,8.66c-.04-.14-.05-.31-.14-.41-.03-.04-.23.06-.36.09.04.14.06.31.14.41.03.04.23-.06.36-.09Zm-80.39-20.39c-.31-.28-.57-.68-.74-.64-.4.09-.75.38-1.12.6.2.21.44.62.6.59.42-.07.81-.34,1.27-.55Z"/>
      <path class="cls-3" d="m110.61,24.8c-1.04.02-2.09.03-3.13.05-1.27-3.9-3.57-3.96-7.95-.18-2.67.78-5.33,1.57-8,2.35-4.05,3.04-8.1,6.08-12.15,9.13-2.43-.97-2.95-2.39-2.03-5.01.67-1.92.21-4.24.25-6.39,18.1-13.84,37.74-14.86,57.56-5.12,7.62,3.75,13.66,10.72,20.81,16.54,2.76-1.05,6.65-2.54,10.81-4.13,1.37,6.11-3.12,6.69-5.65,8.72-1.32,1.06-2.77,1.97-4.16,2.94-.88.09-1.77.17-2.65.26-.73-3.75-2.63-5.02-6.27-3.14-1.11.57-2.48.63-3.73.93-2.99-2.63-5.98-5.26-8.97-7.89-.66-.36-1.32-.72-1.98-1.08.1-.95.6-2.54.24-2.76-7.03-4.37-14.35-7.75-22.97-5.2Zm15.43-3.27c-6.4-5.27-15.89-5.91-18.43-2.11,6.32.72,12.37,1.42,18.43,2.11Zm10.29,5.59c.19-.42.38-.83.57-1.25-3.26-3.78-6.37-5-10.2-3.23,3.6,1.67,6.61,3.07,9.63,4.47Z"/>
      <path class="cls-26" d="m144.29,90.46c1.82-1.4,3.47-3.18,5.51-4.12,3.36-1.56,6.97-2.58,10.47-3.83-3.43,14.67-12.35,25.42-24.89,33.04-15.56,9.45-38.21,9.05-51.77-.42,4.97-1.97,9.94-3.93,14.9-5.9,3.28,3.94,10.41,5.24,15.94,2.92,2.34-.57,4.67-1.14,7.01-1.71l3.94-1.27c5.82-3.94,11.82-7.64,17.34-11.95,1.63-1.27,3.94-3.86,1.55-6.76Z"/>
      <path class="cls-14" d="m33.98,100.42c4.78-2.43,9.52-4.92,14.34-7.26,1.7-.83,3.58-1.29,5.37-1.91.55,1.35,1.09,2.7,1.64,4.04,1.46-.95,2.92-1.89,4.38-2.84,2.66-.94,5.33-1.87,7.99-2.81,1.69-.36,3.39-.71,5.08-1.07-1.31,1.27-2.4,3.01-3.96,3.74-10.44,4.86-20.98,9.5-31.46,14.27-.68.31-1.13,1.14-1.69,1.72-2.61,1.2-5.22,2.41-8.76,4.04,0-3.11,0-4.99,0-6.86.35-.7.69-1.4,1.04-2.09.31-.02.61-.1.89-.23,1.01-.58,2.02-1.16,3.03-1.73.33-.07.65-.14.98-.22.37-.26.75-.53,1.12-.79Z"/>
      <path class="cls-29" d="m153.37,67.61c-3.27-.69-4.79-2.58-4.1-5.98,4.65-2.27,9.31-4.55,13.96-6.82,4.6-2.05,9.21-4.1,13.81-6.14l3.22.09c1.4,3.33-.11,5.45-2.98,6.9-3.69,1.86-7.51,3.47-11.09,5.52-1.9,1.09-3.41,2.87-5.1,4.33-2.58.7-5.15,1.4-7.73,2.1Z"/>
      <path class="cls-5" d="m77.72,109.32c-.45,1-.9,2.01-1.35,3.01-.28.35-.55.71-.83,1.06-7.03,2.84-14.07,5.64-21.08,8.54-5.13,2.12-10.2,4.4-15.33,6.53-1.14.47-2.42.59-4.94,1.18,1.37-2.16,2.07-3.27,2.76-4.37,1.2-.43,2.44-.76,3.58-1.3,4.7-2.24,9.36-4.54,14.04-6.81,6.7-2.61,13.39-5.26,20.12-7.79.89-.33,2.01-.04,3.02-.04Z"/>
      <path class="cls-29" d="m161.22,71.55c-.33-.01-.65-.02-.98-.02,0-.99-.02-1.98-.02-2.97.36-.36.72-.72,1.08-1.07,6.61-3.46,13.21-6.95,19.84-10.36,1.26-.65,2.69-1.4,4.01-1.35,1.13.04,2.61.93,3.17,1.9.3.51-.78,2.45-1.67,2.92-6.46,3.42-13.04,6.63-19.58,9.91-1.59.36-3.18.72-4.77,1.08-.37-.01-.73-.02-1.1-.04Z"/>
      <path class="cls-29" d="m147.33,57.7c-.32-1.73-.65-3.47-.97-5.2,3.98-2.1,7.97-4.19,11.95-6.29,3.09-.92,6.19-1.84,9.25-2.74,1.75,4.31-.14,6.12-3.48,7.28-1.1.38-2.03,1.25-3.04,1.89-4.57,1.69-9.14,3.37-13.71,5.06Z"/>
      <path class="cls-3" d="m180.27,48.76c-1.07-.03-2.15-.06-3.22-.09-1.16-1.33-2.96-2.51-3.33-4.04-.59-2.42-.57-5.13-.15-7.6.49-2.95,2.92-3.36,5.64-3.31,5.73.11,8.37,1.92,8.86,6.49.37,3.51-3.41,7.66-7.79,8.55Zm4.87-10.68c-4.24-1.09-6.86.8-8.74,3.57-.25.36,2.39,3.85,3.6,3.8,4.05-.16,4.84-3.49,5.14-7.37Z"/>
      <path class="cls-10" d="m162.32,71.59c1.59-.36,3.18-.72,4.77-1.08,3.27,5.57-2.98,5.56-4.8,8.15-4.71,1.8-9.4,3.61-14.12,5.37-1.73.65-3.51,1.19-5.85,1.98,4.12-8.56,12.66-9.45,18.9-13.63.37-.26.73-.53,1.1-.79Z"/>
      <path class="cls-8" d="m54.58,117.15c-4.68,2.28-9.34,4.58-14.04,6.81-1.14.54-2.38.87-3.58,1.3-.72-1.7-1.43-3.39-2.15-5.09,1-.98,2-1.95,3-2.93,5.28-1.65,10.57-3.31,15.85-4.96,1.07.03,2.14.05,3.22.08-.77,1.59-1.53,3.19-2.3,4.78Z"/>
      <path class="cls-26" d="m77.58,24.74c-.04,2.14.43,4.46-.25,6.39-.91,2.61-.39,4.04,2.03,5.01-.9,1.2-1.79,2.39-2.69,3.59-.35.34-.71.68-1.06,1.02-3.34-.34-6.68-.68-10.02-1.03,3.99-4.99,7.98-9.99,11.98-14.98Z"/>
      <path class="cls-10" d="m75.54,113.4c.28-.35.55-.71.83-1.06,1.4-.02,3,.4,4.18-.12,6.45-2.85,12.74-6.05,19.2-8.87,1.95-.85,4.26-.87,6.4-1.27.2.45.4.9.6,1.35-2.44,1.63-4.89,3.26-7.33,4.9-.3.3-.6.6-.9.91-4.97,1.97-9.94,3.94-14.9,5.9-2.69-.58-5.39-1.16-8.08-1.74Z"/>
      <path class="cls-26" d="m50.77,63.14c-1.96.49-3.92.98-5.88,1.48-.71.25-1.41.49-2.11.74-.96.1-1.92.19-2.88.29-.72-.69-1.44-1.37-2.16-2.06,1.39-1.31,2.78-2.63,4.17-3.94.94-1.04,1.88-2.07,2.82-3.11,4.65-2.31,9.3-4.63,13.94-6.94.35,1.28.7,2.57,1.04,3.86-.74.39-1.49.77-2.23,1.16-.64.34-1.28.69-1.91,1.03-1.28.34-2.56.67-3.84,1.01-1.54,0-3.09,0-5.69,0,1.81,2.42,2.76,3.68,3.71,4.95.34.52.68,1.03,1.02,1.55Z"/>
      <path class="cls-27" d="m43.86,91.45c-2.98,1.25-5.92,2.6-8.95,3.69-1.39.5-2.97.48-4.47.71.04-.26.13-.51.26-.74.22-.07.43-.14.65-.2-.19-.14-.38-.28-.57-.41l.02-.05c.06-.27.08-.55.08-.83.63-.77,1.26-1.54,1.9-2.3.63-.08,1.31-.02,1.87-.25,7.01-2.89,14.01-5.82,21.01-8.73.35,1.03.7,2.07,1.05,3.1-3.64,1.36-7.28,2.71-10.92,4.07-.64.65-1.29,1.31-1.93,1.96Z"/>
      <path class="cls-30" d="m53.66,112.3c-5.28,1.65-10.57,3.31-15.85,4.96-.36-.7-.71-1.39-1.07-2.09,1.73-1.29,3.47-2.58,5.2-3.87,3.2-1.36,6.41-2.72,9.61-4.08,2.74-.13,4.74.53,4.16,3.91-.69.39-1.37.78-2.06,1.17Z"/>
      <path class="cls-3" d="m176.38,73.62c1.57,1.89,4.82,4.46,4.38,5.53-.97,2.4-3.79,4.06-5.85,6.01-1.59-1.89-4.15-3.61-4.51-5.71-.47-2.69,1.11-5.4,5.98-5.83Zm-2.82,4.97l-.51.99c.83.32,1.66.64,2.49.97.08-.18.16-.35.24-.53-.74-.48-1.48-.95-2.22-1.43Z"/>
      <path class="cls-3" d="m52.71,36.71c3.38.95,4,3.8,2.38,5.9-1.48,1.93-4.69,3.89-6.78,3.56-1.77-.28-3.94-3.67-4.27-5.93-.35-2.4,1.22-5.17,4.84-4.47,1.32.26,2.6.67,3.9,1.01-1.75,1.23-6.1-.81-5.04,3.98,1.01,0,2.02,0,3.03-.01.65-1.35,1.29-2.7,1.94-4.05Z"/>
      <path class="cls-18" d="m55.65,82.32c-7,2.92-13.99,5.85-21.01,8.73-.56.23-1.24.17-1.87.25,4.1-2.32,8.28-4.53,12.27-7.04,1.47-.92,2.49-2.56,3.71-3.87,1.99-1.56,3.97-3.11,5.96-4.67,1.02,1.62,2.05,3.25,3.07,4.87-.71.57-1.42,1.15-2.13,1.72Z"/>
      <path class="cls-19" d="m147.33,57.7c4.57-1.69,9.14-3.37,13.71-5.06.73.72,1.46,1.44,2.19,2.16-4.65,2.27-9.31,4.55-13.96,6.82-.64-1.31-1.29-2.62-1.93-3.93Z"/>
      <path class="cls-24" d="m158.31,46.21c-3.98,2.1-7.97,4.19-11.95,6.29-.32-1.58-.63-3.17-.95-4.75,2.96-1.27,5.92-2.53,8.89-3.8.88-.09,1.77-.17,2.65-.26.45.84.91,1.68,1.36,2.52Z"/>
      <path class="cls-10" d="m51.55,107.21c-3.2,1.36-6.41,2.72-9.61,4.08-.09-.98-.18-1.97-.27-2.95,4.49-2.29,8.6-5.64,14.12-5.14-1.41,1.34-2.82,2.67-4.24,4.01Z"/>
      <path class="cls-6" d="m36.74,115.17c.36.7.71,1.39,1.07,2.09-1,.98-2,1.95-3,2.93-2.56.34-5.12.69-8.39,1.13,2.12-5.9,7.2-4.19,10.32-6.14Z"/>
      <path class="cls-24" d="m161.3,67.49c-.36.36-.72.72-1.08,1.07-.67.31-1.34.63-2,.94-.34.1-.67.19-1,.28-.34.25-.68.51-1.02.76-1.97.67-3.94,1.33-5.92,2-.41-.66-.82-1.33-1.23-1.99,1.44-.98,2.88-1.96,4.32-2.94,2.58-.7,5.15-1.4,7.73-2.1.07.66.14,1.32.2,1.98Z"/>
      <path class="cls-29" d="m5.81,84.1c4.76-2.14,9.53-4.28,14.29-6.42.28.6.55,1.2.83,1.8-4.69,2.3-9.38,4.6-14.08,6.9-.35-.76-.69-1.52-1.04-2.28Z"/>
      <path class="cls-29" d="m37.74,63.58c.72.69,1.44,1.37,2.16,2.06-3.22,1.07-5.91,4.32-11.26,2.53,3.79-1.91,6.45-3.25,9.1-4.59Z"/>
      <path class="cls-3" d="m7.91,109.2c.72.72,1.43,1.44,2.15,2.15-2.42,1.39-4.85,2.77-7.37,4.21q-.78-4.18,5.22-6.36Z"/>
      <path class="cls-4" d="m32.81,72.48c0,.7,0,1.4.01,2.1-1.81.39-3.62.78-5.44,1.16-.15-.41-.3-.82-.44-1.23,1.96-.68,3.91-1.35,5.87-2.03Z"/>
      <path class="cls-29" d="m44.73,56.52c-.94,1.04-1.88,2.07-2.82,3.11-1.83-3.54,1.69-2.25,2.82-3.11Z"/>
      <path class="cls-1" d="m30.7,95.11c-.13.23-.22.48-.26.74-.05.38-.09.77-.13,1.16,0,0-.03.02-.03.02-.53.14-1.07.28-1.6.42,0,0,.12.02.12.02-.29-.35-.57-.69-.86-1.04.55-.69,1.11-1.39,1.66-2.08.4.03.8.06,1.19.09,0,0-.02.05-.02.05-.03.2-.06.41-.09.62Z"/>
      <path class="cls-3" d="m27.95,103.39c-.35.7-.69,1.4-1.04,2.09-.35-.11-.69-.21-1.04-.32.69-.59,1.39-1.18,2.08-1.77Z"/>
      <path class="cls-29" d="m42.78,65.35c.7-.25,1.41-.49,2.11-.74-.05.36-.1.71-.15,1.07-.65-.11-1.31-.22-1.96-.33Z"/>
      <path class="cls-19" d="m36.49,82.01c.45.16.9.33,1.34.49.19.47.39.93.58,1.4-.98-.24-1.96-.48-2.95-.72.34-.39.68-.78,1.02-1.17Z"/>
      <path class="cls-24" d="m38.41,83.9c-.19-.47-.39-.93-.58-1.4,1.02.03,2.04.07,3.06.1-.83.43-1.66.86-2.48,1.29Z"/>
      <path class="cls-27" d="m27.95,96.43c.29.35.57.69.86,1.04-.29-.35-.57-.69-.86-1.04Z"/>
      <path class="cls-26" d="m64.67,41.68c-.24.34-.48.68-.72,1.02.24-.34.48-.68.72-1.02Z"/>
      <path class="cls-25" d="m30.8,94.44c-.4-.03-.8-.06-1.19-.09.42-.25.85-.49,1.27-.74,0,.28-.02.56-.08.83Z"/>
      <path class="cls-26" d="m63.67,43.66c-.25.35-.5.7-.76,1.04.25-.35.5-.7.76-1.04Z"/>
      <path class="cls-2" d="m54.58,117.15c.77-1.59,1.53-3.19,2.3-4.78,1.64-.98,3.29-1.97,4.94-2.95,2.32-1.33,4.65-2.67,6.97-4,5.01-1.9,10.02-3.77,15.01-5.7,1.91-.74,3.77-1.62,5.65-2.44,1.99,1.03,3.98,2.06,5.97,3.08-5.62,2.92-11.24,5.83-16.86,8.75-.26.14-.54.21-.83.21-1.01,0-2.13-.3-3.02.04-6.73,2.53-13.42,5.18-20.12,7.79Z"/>
      <path class="cls-17" d="m68.78,105.42c-2.32,1.33-4.65,2.67-6.97,4-2.03.57-4.06,1.14-6.09,1.71.57-3.38-1.42-4.05-4.16-3.91,1.41-1.34,2.82-2.67,4.24-4.01,4.11-2.61,8.13-5.37,12.35-7.79,3.06-1.76,6.3-3.32,9.63-4.48,2.3-.8,5.15-1.83,6.7,1.54-3.26,1.35-6.42,3.25-9.82,3.93-4.27.85-5.72,2.9-4.92,6.95-.32.69-.63,1.39-.95,2.08Z"/>
      <path class="cls-1" d="m133.44,84.45c3.65,3.95-1.34,4.57-2.41,6.95-4.01-1.95-7.78-4.01-9.27,2.65-.23,1.03-5.28,2.41-5.99,1.66-4.25-4.53-7-2.56-9.57,1.51-3.44-.5-6.36-1.14-5.81-5.6.07-.59-1.24-1.34-1.91-2.02.03-.76.06-1.53.09-2.29,11.77,5.92,22.26,3.6,31.78-4.92,1.03.69,2.06,1.37,3.09,2.06Z"/>
      <path class="cls-4" d="m55.65,82.32c.71-.57,1.42-1.15,2.13-1.72,3.99-2.01,7.99-4.02,11.98-6.03.94-.69,1.88-1.38,2.82-2.07-.65-.69-1.3-1.39-1.95-2.08.68-.57,1.94-1.68,1.97-1.64,1.7,1.81,3.3,3.73,5.53,6.36-6.85,3.29-14.14,6.79-21.43,10.29-.35-1.03-.7-2.07-1.05-3.1Z"/>
      <path class="cls-20" d="m84.71,39.53c-1.43,6.72-14.15,13.46-22.04,11.63,6.97-3.68,13.95-7.36,22.04-11.63Z"/>
      <path class="cls-5" d="m69.73,103.34c-.8-4.04.65-6.09,4.92-6.95,3.4-.68,6.56-2.57,9.82-3.93,1.58,2.01,1.83,3.76-.94,4.95-4.6,1.97-9.2,3.95-13.8,5.93Z"/>
      <path class="cls-13" d="m133.44,84.45c-1.03-.69-2.06-1.37-3.09-2.06,2.32-3.65,4.64-7.31,6.95-10.96.68.7,1.35,1.41,2.03,2.11,4.21,5.35,3.86,6.22-2.46,7.84-1.32.34-2.29,2.01-3.42,3.07Z"/>
      <path class="cls-18" d="m110.61,24.8c8.62-2.55,15.94.83,22.97,5.2.36.22-.14,1.81-.24,2.76-6.14-1.99-12.3-3.94-18.42-5.98-1.49-.5-2.88-1.31-4.31-1.98Z"/>
      <path class="cls-24" d="m144.29,90.46c2.39,2.9.08,5.48-1.55,6.76-5.52,4.32-11.52,8.02-17.34,11.95-.03-.67-.07-1.35-.1-2.02,6.35-4.15,13.57-7.28,17.1-14.7.28-.68.57-1.35.85-2.03.34.01.69.02,1.03.03Z"/>
      <path class="cls-16" d="m72.78,88.57c-1.69.36-3.39.71-5.08,1.07.99-2.32,1.97-4.64,2.96-6.96.31-.07.71-.04.92-.22,3.4-3.04,5.84-2.65,7.17,1.93-.08.62-.16,1.23-.24,1.85-1.86.9-2.61,4.51-5.72,2.33Z"/>
      <path class="cls-20" d="m69.76,74.57c-3.99,2.01-7.99,4.02-11.98,6.03-1.02-1.62-2.05-3.25-3.07-4.87,2.99-1.31,5.98-2.63,8.97-3.94.31,4.68,3.98,2.01,6.08,2.78Z"/>
      <path class="cls-29" d="m154.3,43.95c-2.96,1.27-5.92,2.53-8.89,3.8-1.37-1.34-2.74-2.68-4.1-4.02,1-.66,1.99-1.33,2.99-1.99,1.25-.3,2.62-.36,3.73-.93,3.64-1.87,5.54-.6,6.27,3.14Z"/>
      <path class="cls-13" d="m98.56,87.31c-.03.76-.06,1.53-.09,2.29-.16-.02-.35-.12-.48-.07-6.68,2.46-9.11-.83-9.46-6.95.7-.71,1.41-1.42,2.11-2.12,2.64,2.28,5.28,4.57,7.91,6.85Z"/>
      <path class="cls-6" d="m70.66,82.68c-.99,2.32-1.97,4.64-2.96,6.96-2.66.94-5.33,1.88-7.99,2.81-.02-1.4-.05-2.8-.07-4.2,3.67-1.86,7.34-3.71,11.01-5.57Z"/>
      <path class="cls-20" d="m77.76,65.51c2.89-.33,5.78-.67,8.68-1,.05,1.03.11,2.06.16,3.09.25,1.99.5,3.99.75,5.98-1.33.66-2.66,1.32-3.98,1.98-.34-3.06.2-6.56-4.28-7.34-.58-.1-.89-1.76-1.32-2.7Z"/>
      <path class="cls-7" d="m76.68,39.73c.9-1.2,1.79-2.39,2.69-3.59,4.05-3.04,8.1-6.08,12.16-9.13.36.96.72,1.92,1.07,2.88-.69.38-1.38.76-2.07,1.15-.33.25-.66.5-1,.75-2.32,1.72-4.64,3.44-6.96,5.17-.37.28-.74.56-1.11.83-1.28.72-2.56,1.44-3.84,2.16-.31-.1-.63-.18-.95-.22Z"/>
      <path class="cls-28" d="m139.33,73.54c-.68-.7-1.35-1.41-2.03-2.11-.36-.66-.71-1.32-1.07-1.98-.03-.62-.06-1.25-.09-1.87.13-1.03.25-2.06.38-3.08,2.88.01,5.76.03,8.64.04.19,2.07.83,4.02-2.65,4.34-1.2.11-2.13,3.03-3.19,4.66Z"/>
      <path class="cls-13" d="m98.52,109.23c.3-.3.6-.6.9-.91,1.37.27,2.74.55,4.11.82.35-.26.71-.53,1.06-.79.29,0,.58,0,.87.03.67.58,1.35,1.16,2.02,1.74,2.32-.21,4.65-.41,6.97-.62,0,.88,0,1.77,0,2.65-5.53,2.33-12.66,1.02-15.94-2.92Z"/>
      <path class="cls-28" d="m83.37,75.55c1.33-.66,2.66-1.32,3.98-1.98,1.1,1.29,2.2,2.58,3.3,3.87h-.01c0,1,0,2.01.01,3.01-.7.71-1.41,1.42-2.11,2.12-1.21-.37-2.39-.84-3.62-1.08-3.37-.66-4-2.99-1.55-5.96Z"/>
      <path class="cls-12" d="m145.17,64.54c-2.88-.01-5.76-.03-8.64-.04-.11-.63-.23-1.25-.34-1.88l-.98-5s.37.09.37.09c1.2-.35,2.4-.7,3.6-1.06,1.29,2.37,1.56,5.86,5.66,5.16.11.91.22,1.82.33,2.74Z"/>
      <path class="cls-26" d="m144.3,41.74c-1,.66-1.99,1.33-2.99,1.99-1.62-2.69-3.6-4.51-7.01-2.88-1.03-1.01-2.06-2.02-3.09-3.02,1.37-1.33,2.74-2.66,4.12-3.98,2.99,2.63,5.98,5.26,8.97,7.89Z"/>
      <path class="cls-9" d="m78.55,109.12c5.62-2.92,11.24-5.83,16.86-8.75.39.34.78.67,1.18,1.01-6.01,2.58-12.03,5.16-18.04,7.74Z"/>
      <path class="cls-24" d="m92.6,29.9c-.36-.96-.72-1.92-1.07-2.88,2.67-.78,5.33-1.57,8-2.35,1.91.09,3.82.19,5.73.28-.37.6-.62,1.59-1.13,1.74-3.81,1.16-7.68,2.16-11.52,3.21Z"/>
      <path class="cls-17" d="m59.64,88.25c.02,1.4.05,2.8.07,4.2-1.46.95-2.92,1.89-4.38,2.84-.55-1.35-1.09-2.7-1.64-4.04,1.98-1,3.97-2,5.95-3Z"/>
      <path class="cls-11" d="m96.59,101.37c-.39-.34-.78-.67-1.18-1.01-1.99-1.03-3.98-2.05-5.97-3.08,2.85-1.11,5.87-6.03,8.38.16.4.98-.79,2.6-1.24,3.92Z"/>
      <path class="cls-7" d="m69.76,74.57c-2.1-.77-5.77,1.9-6.08-2.78,2.31-.46,4.63-.91,6.94-1.37.65.69,1.3,1.39,1.95,2.08-.94.69-1.88,1.38-2.82,2.07Z"/>
      <path class="cls-26" d="m129.38,96.52c-1.15,2.93-6.86,5.09-8.87,3.65,1.87-1.94,3.71-3.97,5.72-5.81.38-.35,1.43.03,2.17.07.03.4.07.8.1,1.19.29.3.58.6.87.9Z"/>
      <path class="cls-4" d="m51.73,56.64c1.28-.34,2.56-.67,3.84-1.01,1.38.03,2.76.06,4.14.1.63-.06,1.26-.11,1.89-.17-.3.7-.6,1.39-.89,2.09-1.01.29-2.01.58-3.02.87-.66.36-1.31.72-1.97,1.08-.34-.05-.68-.1-1.03-.14-.99-.94-1.98-1.88-2.96-2.81Z"/>
      <path class="cls-26" d="m105.25,24.94c-1.91-.09-3.82-.19-5.73-.28,4.38-3.78,6.69-3.72,7.95.18-.74.03-1.49.07-2.23.1Z"/>
      <path class="cls-24" d="m114.46,112.15c0-.88,0-1.77,0-2.65,2.3-.42,4.59-.84,6.89-1.25.04.73.08,1.46.12,2.19-2.34.57-4.67,1.14-7.01,1.71Z"/>
      <path class="cls-3" d="m149.05,70.55c.41.66.82,1.33,1.23,1.99-1.75.89-3.49,1.77-5.24,2.66-.28-.41-.56-.82-.83-1.22,1.62-1.14,3.23-2.28,4.85-3.42Z"/>
      <path class="cls-13" d="m121.47,110.44c-.04-.73-.08-1.46-.12-2.19,0,0-.03.05-.03.05.34-.26.69-.53,1.03-.79.98-.12,1.97-.23,2.95-.35.03.67.07,1.35.1,2.02-1.31.42-2.62.84-3.94,1.27Z"/>
      <path class="cls-26" d="m116.91,104.96c-1.1-.23-2.19-.47-3.29-.7.12-.45.25-1.3.36-1.29,1.07.02,2.14.18,3.21.3-.1.57-.19,1.13-.29,1.7Z"/>
      <path class="cls-11" d="m107.18,101.42c-.32-.31-.63-.62-.95-.92,1.54-.33,3.08-.67,6.09-1.32-1.44,1.7-2.11,2.48-2.77,3.27-.79-.34-1.57-.69-2.36-1.03Z"/>
      <path class="cls-8" d="m54.7,59.45c.34.05.68.1,1.03.14.01.31,0,.62-.02.93-1.65.87-3.29,1.74-4.94,2.61-.34-.52-.68-1.03-1.02-1.55,1.65-.71,3.3-1.42,4.95-2.14Z"/>
      <path class="cls-9" d="m129.38,96.52c-.29-.3-.58-.6-.87-.9,1.42-.32,2.83-.65,4.25-.97-1.12.62-2.25,1.25-3.37,1.87Z"/>
      <path class="cls-11" d="m78.51,86.24c.08-.62.16-1.23.24-1.85.81.11,1.63.23,2.44.34-.23.67-.46,1.33-.69,2-.17-.22-.39-.28-.65-.18-.45-.1-.89-.21-1.34-.31Z"/>
      <path class="cls-26" d="m137.39,92.88c-.61.45-1.23.9-1.84,1.34-.05-.57-.26-1.21-.08-1.7.1-.28.84-.33,1.29-.48.21.28.42.56.64.84Z"/>
      <path class="cls-3" d="m158.22,69.5c.67-.31,1.34-.63,2-.94,0,.99.02,1.98.02,2.97-.68-.68-1.35-1.36-2.03-2.04Z"/>
      <path class="cls-25" d="m61.61,55.56c-.63.06-1.26.11-1.89.17-.74-.38-1.48-.75-2.22-1.13.74-.39,1.49-.77,2.23-1.16.63.71,1.26,1.41,1.89,2.12Z"/>
      <path class="cls-20" d="m55.7,60.53c.03-.31.04-.62.02-.93.66-.36,1.31-.72,1.97-1.08.33.33.65.65.98.98-.99.34-1.98.69-2.97,1.03Z"/>
      <path class="cls-3" d="m31.88,101.43c-1.01.58-2.02,1.16-3.03,1.73,1.01-.58,2.02-1.16,3.03-1.73Z"/>
      <path class="cls-26" d="m107.49,110.12c-.67-.58-1.35-1.16-2.02-1.74.67-.35,1.34-.71,2.01-1.06,0,0,.01.02.01.02,0,.93,0,1.85,0,2.78Z"/>
      <path class="cls-26" d="m110.47,106.35c-.99.33-1.99.66-2.98,1,0,0-.01-.02-.01-.02,1-.33,1.99-.66,2.99-.99,0,0,0,.01,0,.01Z"/>
      <path class="cls-4" d="m132.75,94.65c-1.42.32-2.83.65-4.25.97-.03-.4-.07-.8-.1-1.19,1.45.07,2.9.15,4.35.22Z"/>
      <path class="cls-3" d="m43.86,91.45c.64-.65,1.29-1.31,1.93-1.96-.64.65-1.29,1.31-1.93,1.96Z"/>
      <path class="cls-1" d="m58.68,59.5c-.33-.33-.65-.65-.98-.98,1.01-.29,2.01-.58,3.02-.87-.68.62-1.36,1.23-2.03,1.85Z"/>
      <path class="cls-26" d="m93.52,38.84c-.65-.1-1.31-.2-1.96-.3.3-.46.61-.92.91-1.39.35.56.7,1.12,1.05,1.68Z"/>
      <path class="cls-3" d="m76.68,39.73c.32.04.64.12.95.22-.67.27-1.34.53-2.01.8.35-.34.71-.68,1.06-1.02Z"/>
      <path class="cls-29" d="m143.26,90.43c-.28.68-.57,1.35-.85,2.03.28-.68.57-1.35.85-2.03Z"/>
      <path class="cls-26" d="m110.46,106.33c.53-.15,1.05-.29,1.58-.42,0,0,.09.29.13.45-.57,0-1.13-.01-1.7-.02,0,0,0-.01,0-.01Z"/>
      <path class="cls-9" d="m107.18,101.42c.79.34,1.57.69,2.36,1.03-.79-.34-1.57-.69-2.36-1.03Z"/>
      <path class="cls-26" d="m109.47,35.58c-.6-.6-1.2-1.19-1.79-1.79.6.6,1.2,1.19,1.79,1.79Z"/>
      <path class="cls-26" d="m118.17,101.54c-.12.03-.33.13-.36.09-.09-.11-.1-.27-.14-.41.12-.03.33-.13.36-.09.09.11.1.27.14.41Z"/>
      <path class="cls-19" d="m37.78,81.15c-.45.21-.84.47-1.27.55-.16.03-.4-.38-.6-.59.37-.21.73-.51,1.12-.6.17-.04.43.36.74.64Z"/>
      <path class="cls-26" d="m104.59,108.35c-.35.26-.71.53-1.06.79.35-.26.71-.53,1.06-.79Z"/>
      <path class="cls-26" d="m81.47,37.79c.37-.28.74-.56,1.11-.83-.37.28-.74.56-1.11.83Z"/>
      <path class="cls-27" d="m30.28,97.03s.03-.02.03-.02c.02.23.03.47.05.71-.03-.23-.05-.46-.08-.69Z"/>
      <path class="cls-24" d="m122.36,107.51c-.34.26-.69.53-1.03.79.34-.26.69-.53,1.03-.79Z"/>
      <path class="cls-26" d="m89.53,31.79c.33-.25.66-.5,1-.75-.33.25-.66.5-1,.75Z"/>
      <path class="cls-26" d="m134.3,45.83c-.25-.27-.49-.53-.74-.8.24-.15.49-.3.73-.45,0,.41,0,.83,0,1.24Z"/>
      <path class="cls-3" d="m33.98,100.42c-.37.26-.75.53-1.12.79.37-.26.75-.53,1.12-.79Z"/>
      <path class="cls-19" d="m79.84,86.55c.26-.11.48-.05.65.18-.22-.06-.43-.12-.65-.18Z"/>
      <path class="cls-3" d="m156.19,70.54c.34-.25.68-.51,1.02-.76-.34.25-.68.51-1.02.76Z"/>
      <path class="cls-3" d="m162.32,71.59c-.37.27-.73.53-1.1.79,0-.28,0-.55,0-.83.37.01.73.02,1.1.04Z"/>
      <path class="cls-29" d="m126.04,21.53c-6.05-.69-12.11-1.38-18.43-2.11,2.54-3.8,12.02-3.17,18.43,2.11Z"/>
      <path class="cls-29" d="m136.33,27.11c-3.02-1.4-6.04-2.8-9.63-4.47,3.83-1.77,6.94-.55,10.2,3.23-.19.42-.38.83-.57,1.25Z"/>
      <path class="cls-13" d="m185.13,38.08c-.3,3.89-1.09,7.21-5.14,7.37-1.22.05-3.85-3.44-3.6-3.8,1.88-2.77,4.5-4.66,8.74-3.57Z"/>
      <path class="cls-18" d="m55.72,111.13c2.03-.57,4.06-1.14,6.09-1.71-1.65.98-3.29,1.97-4.94,2.95-1.07-.03-2.14-.05-3.22-.08.69-.39,1.37-.78,2.06-1.17Z"/>
      <path class="cls-29" d="m54.7,59.45c-1.65.71-3.3,1.42-4.95,2.14-.95-1.26-1.89-2.53-3.71-4.95,2.61,0,4.15,0,5.69,0,.99.94,1.98,1.88,2.96,2.81Z"/>
      <path class="cls-19" d="m57.49,54.6c.74.38,1.48.75,2.22,1.13-1.38-.03-2.76-.06-4.14-.1.64-.34,1.27-.69,1.91-1.03Z"/>
      <path class="cls-25" d="m30.7,95.11c.02-.21.05-.41.09-.62.19.14.38.28.57.41-.22.07-.43.14-.65.2Z"/>
      <path class="cls-15" d="m173.56,78.6c.74.48,1.48.95,2.22,1.43-.08.18-.16.35-.24.53-.83-.32-1.66-.64-2.49-.97l.51-.99Z"/>
      <path class="cls-7" d="m47.74,40.77c1.01,0,2.02,0,3.03-.01-1.01,0-2.02,0-3.03.01Z"/>
      <path class="cls-21" d="m136.18,62.61c.11.63.23,1.25.34,1.88-.13,1.03-.25,2.06-.38,3.08-.22.68-.45,1.36-.67,2.04-.37.7-.89,1.37-1.08,2.11-2.51,9.9-17.86,19.34-28.34,15.98-6.43-2.06-10.74-6.18-15.42-10.28,0,0,.01.01.02.01-1.35-3.29-2.7-6.57-4.05-9.86-.05-1.03-.11-2.06-.16-3.09.11-.97.21-1.94.32-2.91.27-.35.53-.69.8-1.04.08-.97.15-1.95.23-2.92.9-2,1.81-4,2.71-5.99.08-.32.16-.64.25-.96.92-1.03,1.85-2.06,2.77-3.1,1.63-1.31,3.27-2.61,4.9-3.92.68-.36,1.37-.73,2.05-1.09.98-.3,1.96-.6,2.94-.89,1.03-.26,2.06-.52,3.09-.78,10.69-1.39,19.57,1.59,25.89,10.73.6,1.11,1.19,2.21,1.79,3.32.44.33.88.66,1.33.99.03.58.06,1.16.09,1.75,0,0-.37-.09-.37-.09.33,1.67.65,3.33.98,5Zm-5.82.99c0,.33,0,.66,0,.99-1.48,3.41-2.95,6.82-4.82,11.12,5.93-1.72,7.52-5.74,5.81-11.12,0-.33,0-.66,0-.99.05-7.98-1-10.05-6.89-11.32,2.2,4.23,4.05,7.78,5.9,11.33Zm-32.85-12.12c-5.96,3.68-7.03,6.26-5.06,12.2-2.27,7.21-.52,11.64,5.08,12.81.23.92.22,2.03.74,2.74,3.55,4.88,8.62,5.85,14.23,5.24.32,0,.64,0,.95,0,5.75.7,9.24-2.94,12.73-6.98-1.39-.33-2.68-.18-3.88.23-3.4,1.15-6.89,3.67-10.1,3.34-5-.51-9.81-2.92-14.7-4.53-.7-4.98-1.39-9.96-2.08-14.94l3.08-9.91c1.7.34,3.4.68,5.1,1.01-1.04,1.27-2.09,2.55-3.13,3.82l-2.83,8.05c-.36,5.14,2.37,8.19,6.84,10.07,1.14.31,2.29.87,3.43.87,1.15,0,2.3-.58,3.45-.9,2.92,2.92,5.75,2.15,8.63-.12,3.16-2.5,4.93-5.6,4.54-9.73-.69-2.72-1.38-5.44-2.08-8.16-2.35-3.73-5.65-5.39-10.11-4.95-1.93.19-3.9-.07-5.85-.12.48-2.41.97-4.82,1.71-8.53-2.1,1.44-3.39,2.33-4.68,3.21-.86.59-1.83,1.81-2.55,1.67-3.29-.64-3.28,1.51-3.45,3.62Zm14.21-5.83c-.15.52-.31,1.03-.46,1.55,4.19,1.15,8.39,2.3,13.14,3.61-2.1-4.94-7.69-6.9-12.68-5.16Z"/>
      <path class="cls-26" d="m90.48,51.65c-.9,2-1.81,4-2.71,5.99.9-2,1.81-4,2.71-5.99Z"/>
      <path class="cls-26" d="m93.5,47.59c-.92,1.03-1.85,2.06-2.77,3.1.92-1.03,1.85-2.06,2.77-3.1Z"/>
      <path class="cls-26" d="m134.16,54.96c-.6-1.11-1.19-2.21-1.79-3.32.72,1.02,1.43,2.04,2.15,3.06,0,0-.36.26-.36.26Z"/>
      <path class="cls-26" d="m106.49,40.92c-1.03.26-2.06.52-3.09.78,1.03-.26,2.06-.52,3.09-.78Z"/>
      <path class="cls-12" d="m134.16,54.96s.36-.26.36-.26c.32.41.64.83.97,1.24-.44-.33-.88-.66-1.33-.99Z"/>
      <path class="cls-26" d="m100.46,42.59c-.68.36-1.37.73-2.05,1.09.68-.36,1.37-.73,2.05-1.09Z"/>
      <path class="cls-26" d="m87.55,60.56c-.27.35-.53.69-.8,1.04.27-.35.53-.69.8-1.04Z"/>
      <path class="cls-26" d="m136.23,69.45c-.24.11-.5.16-.76.17.22-.68.45-1.36.67-2.04.03.62.06,1.25.09,1.87Z"/>
      <path class="cls-26" d="m136.18,62.61c-.33-1.67-.65-3.33-.98-5,.33,1.67.65,3.33.98,5Z"/>
      <path class="cls-4" d="m112.5,84.48c-5.61.6-10.68-.37-14.23-5.24-.52-.71-.5-1.82-.74-2.74l-.03.03c4.89,1.61,9.7,4.02,14.7,4.53,3.22.33,6.71-2.19,10.1-3.34,1.2-.41,2.49-.56,3.88-.23-3.49,4.03-6.98,7.68-12.73,6.98-.32,0-.64,0-.95,0Z"/>
      <path class="cls-28" d="m124.52,64.74c.39,4.13-1.39,7.23-4.54,9.73-2.87,2.27-5.71,3.04-8.63.12.38-.27.75-.55,1.13-.82.81-.22,1.63-.45,2.44-.67.5-.54,1-1.07,1.51-1.61,1.29-2.25,2.58-4.5,3.87-6.74,1.41,0,2.82,0,4.23,0Z"/>
      <path class="cls-18" d="m104.47,74.63c-4.46-1.88-7.2-4.92-6.84-10.07,1.97-.66,3.93-1.31,5.9-1.97,2.03,2.64-1.01,6.88,2.84,8.94-.63,1.03-1.27,2.06-1.9,3.09Z"/>
      <path class="cls-27" d="m97.53,76.5c-5.59-1.17-7.35-5.6-5.08-12.81.99-.7,1.97-1.39,2.96-2.09.7,4.98,1.39,9.96,2.08,14.94,0,0,.03-.03.03-.03Z"/>
      <path class="cls-26" d="m106.49,51.51c-.96.4-1.93.8-2.89,1.2-1.7-.34-3.4-.68-5.1-1.01-.33-.07-.65-.14-.98-.2.18-2.11.16-4.25,3.45-3.62.72.14,1.69-1.08,2.55-1.67,1.29-.89,2.59-1.77,4.68-3.21-.75,3.71-1.23,6.12-1.71,8.53Z"/>
      <path class="cls-19" d="m97.52,51.48c.33.07.65.14.98.2-1.03,3.3-2.05,6.6-3.08,9.91-.99.7-1.97,1.39-2.96,2.09-1.97-5.94-.9-8.52,5.06-12.2Z"/>
      <path class="cls-25" d="m111.73,45.65c4.99-1.75,10.59.22,12.68,5.16-4.76-1.31-8.95-2.46-13.14-3.61.15-.52.31-1.03.46-1.55Z"/>
      <path class="cls-27" d="m131.36,64.6c1.71,5.38.12,9.4-5.81,11.12,1.86-4.3,3.34-7.71,4.82-11.12.33,0,.66,0,1,0Z"/>
      <path class="cls-27" d="m130.37,63.61c-1.85-3.55-3.69-7.09-5.9-11.33,5.89,1.27,6.95,3.35,6.89,11.32-.33,0-.66,0-1,0Z"/>
      <path class="cls-12" d="m103.53,62.6c-1.97.66-3.93,1.31-5.9,1.97.94-2.68,1.89-5.36,2.83-8.05,1.38.72,2.77,1.44,4.15,2.16-.36,1.31-.73,2.61-1.09,3.92Z"/>
      <path class="cls-12" d="m124.52,64.74c-1.41,0-2.82,0-4.23,0-.66-1.69-1.31-3.38-1.97-5.08,1.37-1.03,2.75-2.06,4.12-3.09.69,2.72,1.38,5.44,2.08,8.16Z"/>
      <path class="cls-7" d="m104.47,74.63c.63-1.03,1.27-2.06,1.9-3.09.71.34,1.42.69,2.13,1.03,1.33.4,2.65.8,3.98,1.21-.38.27-.75.55-1.13.82-1.15.32-2.3.9-3.45.9-1.14,0-2.29-.55-3.43-.87Z"/>
      <path class="cls-26" d="m112.5,84.48c.32,0,.64,0,.95,0-.32,0-.64,0-.95,0Z"/>
      <path class="cls-26" d="m130.37,63.61c.33,0,.66,0,1,0,0,.33,0,.66,0,.99-.33,0-.66,0-1,0,0-.33,0-.66,0-.99Z"/>
      <path class="cls-21" d="m108.5,72.57c-.71-.34-1.42-.69-2.13-1.03-3.85-2.06-.81-6.3-2.84-8.94.36-1.31.73-2.61,1.09-3.92,5.7-3.22,8.91-2.99,13.7.99.66,1.69,1.31,3.38,1.97,5.08-1.29,2.25-2.58,4.5-3.87,6.74-.64.05-1.27.11-1.91.16l-5.18.74c-.28.06-.55.12-.83.18Z"/>
      <path class="cls-7" d="m114.51,71.65c-.1.25-.16.5-.19.77-1.66-.01-3.33-.02-4.99-.03,1.73-.25,3.45-.49,5.18-.74Z"/>
    </g>
  </g>
</svg>